<svg width="12" height="12" viewBox="0 0 12 12" fill="none" xmlns="http://www.w3.org/2000/svg">
<path d="M1.875 0H10.125C11.1605 0 12 0.839461 12 1.875V7.875C12 8.91054 11.1605 9.75 10.125 9.75H2.77875L0.64125 11.8912C0.570468 11.9614 0.47468 12.0006 0.375 12C0.167883 12 0 11.8321 0 11.625V1.875C0 0.839461 0.839461 0 1.875 0ZM0.75 10.7213L2.35875 9.10875C2.42951 9.03856 2.52532 8.99941 2.625 9H10.125C10.7463 9 11.25 8.49633 11.25 7.875V1.875C11.25 1.25367 10.7463 0.75 10.125 0.75H1.875C1.25367 0.75 0.75 1.25367 0.75 1.875V10.7213Z" fill="#2B88F5"/>
<path d="M6 5.625C5.58579 5.625 5.25 5.28921 5.25 4.875C5.25 4.46079 5.58579 4.125 6 4.125C6.41421 4.125 6.75 4.46079 6.75 4.875C6.75 5.28921 6.41421 5.625 6 5.625Z" fill="#2B88F5"/>
<path d="M3.375 5.625C2.96079 5.625 2.625 5.28921 2.625 4.875C2.625 4.46079 2.96079 4.125 3.375 4.125C3.78921 4.125 4.125 4.46079 4.125 4.875C4.125 5.28921 3.78921 5.625 3.375 5.625Z" fill="#2B88F5"/>
<path d="M8.625 5.625C8.21079 5.625 7.875 5.28921 7.875 4.875C7.875 4.46079 8.21079 4.125 8.625 4.125C9.03921 4.125 9.375 4.46079 9.375 4.875C9.375 5.28921 9.03921 5.625 8.625 5.625Z" fill="#2B88F5"/>
</svg>
