<svg width="15" height="15" viewBox="0 0 15 15" fill="none" xmlns="http://www.w3.org/2000/svg">
<path d="M12.8755 14.5234H5.40479C4.49601 14.5234 3.75684 13.7843 3.75684 12.8755V5.40479C3.75684 4.49601 4.49601 3.75684 5.40479 3.75684H12.8755C13.7843 3.75684 14.5234 4.49601 14.5234 5.40479V12.8755C14.5234 13.7843 13.7843 14.5234 12.8755 14.5234ZM5.40479 4.85547C5.10189 4.85547 4.85547 5.10189 4.85547 5.40479V12.8755C4.85547 13.1784 5.10189 13.4248 5.40479 13.4248H12.8755C13.1784 13.4248 13.4248 13.1784 13.4248 12.8755V5.40479C13.4248 5.10189 13.1784 4.85547 12.8755 4.85547H5.40479ZM2.6582 10.1289H2.10889C1.80599 10.1289 1.55957 9.88249 1.55957 9.57959V2.10889C1.55957 1.80599 1.80599 1.55957 2.10889 1.55957H9.57959C9.88249 1.55957 10.1289 1.80599 10.1289 2.10889V2.63074H11.2275V2.10889C11.2275 1.20011 10.4884 0.460938 9.57959 0.460938H2.10889C1.20011 0.460938 0.460938 1.20011 0.460938 2.10889V9.57959C0.460938 10.4884 1.20011 11.2275 2.10889 11.2275H2.6582V10.1289Z" fill="white"/>
</svg>
