<svg width="15" height="15" viewBox="0 0 15 15" fill="none" xmlns="http://www.w3.org/2000/svg">
<path d="M13.8132 6.601L1.72056 0.7021C1.61656 0.651369 1.50236 0.625 1.38664 0.625C0.966 0.625 0.625 0.966 0.625 1.38664V1.40862C0.625 1.51082 0.637531 1.61264 0.662319 1.71179L1.8223 6.35169C1.85398 6.47844 1.96114 6.57206 2.09096 6.5865L7.18944 7.153C7.36625 7.17263 7.5 7.32206 7.5 7.5C7.5 7.67794 7.36625 7.82737 7.18944 7.847L2.09096 8.4135C1.96114 8.42794 1.85398 8.52156 1.8223 8.64831L0.662319 13.2882C0.637531 13.3874 0.625 13.4892 0.625 13.5914V13.6134C0.625 14.034 0.966 14.375 1.38664 14.375C1.50236 14.375 1.61656 14.3486 1.72056 14.2979L13.8132 8.399C14.1569 8.23138 14.375 7.88244 14.375 7.5C14.375 7.11756 14.1569 6.76862 13.8132 6.601Z" fill="#7789D2"/>
</svg>
