<svg width="15" height="15" viewBox="0 0 15 15" fill="none" xmlns="http://www.w3.org/2000/svg">
<path d="M14.3928 9.24441C14.3301 9.18183 14.2509 9.13831 14.1645 9.1189C14.078 9.09949 13.9879 9.10497 13.9044 9.13472C12.7828 9.53459 11.5708 9.60802 10.4092 9.34646C9.24758 9.0849 8.18402 8.4991 7.34208 7.65712C6.50015 6.81514 5.91441 5.75153 5.65292 4.58989C5.39143 3.42825 5.46492 2.21625 5.86486 1.09472C5.89458 1.01125 5.90003 0.921059 5.88059 0.834614C5.86114 0.748169 5.81759 0.669006 5.75498 0.606303C5.69238 0.543601 5.61328 0.499926 5.52687 0.480342C5.44045 0.460759 5.35026 0.466069 5.26674 0.495656C4.2556 0.852721 3.33799 1.43321 2.58221 2.19394C1.22734 3.54983 0.466435 5.3883 0.466797 7.30509C0.467159 9.22188 1.22876 11.0601 2.58414 12.4154C3.93952 13.7708 5.7777 14.5324 7.69449 14.5328C9.61129 14.5331 11.4498 13.7722 12.8056 12.4174C13.5664 11.6615 14.1469 10.7437 14.5039 9.73238C14.5334 9.64885 14.5386 9.55869 14.5189 9.47232C14.4993 9.38596 14.4556 9.30694 14.3928 9.24441ZM12.1428 11.7546C11.5037 12.3919 10.7348 12.8843 9.88853 13.1983C9.04222 13.5122 8.13828 13.6404 7.23806 13.5741C6.33785 13.5077 5.46244 13.2485 4.67129 12.8139C3.88013 12.3793 3.19174 11.7796 2.65287 11.0555C2.114 10.3313 1.73726 9.49967 1.54824 8.61703C1.35921 7.73439 1.36232 6.82141 1.55736 5.94007C1.75239 5.05874 2.13479 4.2297 2.67858 3.50923C3.22237 2.78876 3.91483 2.19374 4.70893 1.76456C4.47384 2.93491 4.53048 4.14513 4.87383 5.2884C5.21718 6.43168 5.83669 7.47286 6.67768 8.32003C7.52476 9.16116 8.56593 9.78076 9.70923 10.1241C10.8525 10.4675 12.0628 10.524 13.2331 10.2888C12.9433 10.8281 12.576 11.3219 12.1428 11.7546Z" fill="white"/>
</svg>
