<svg width="12" height="12" viewBox="0 0 12 12" fill="none" xmlns="http://www.w3.org/2000/svg">
<path d="M2.68586 11.7577C2.55438 11.7577 2.42382 11.7167 2.3124 11.6361C2.10485 11.4857 2.00789 11.2271 2.06438 10.9776L2.83637 7.577L0.218262 5.28098C0.0258136 5.11298 -0.0477051 4.84692 0.0313069 4.60347C0.110319 4.36049 0.32529 4.18846 0.579813 4.16493L4.04389 3.85043L5.41346 0.645365C5.51445 0.409885 5.74444 0.257812 5.99997 0.257812C6.2555 0.257812 6.48548 0.409886 6.58647 0.644816L7.95604 3.85043L11.4196 4.16493C11.6746 4.18791 11.8896 4.36049 11.9686 4.60347C12.0476 4.84646 11.9746 5.11298 11.7821 5.28098L9.16402 7.57654L9.93601 10.9771C9.99259 11.2271 9.89554 11.4857 9.68808 11.6356C9.48107 11.7856 9.20504 11.7971 8.98704 11.6661L5.99997 9.88108L3.01289 11.6671C2.9119 11.7271 2.79938 11.7577 2.68586 11.7577ZM5.99997 9.1121C6.11349 9.1121 6.22592 9.14259 6.327 9.20256L9.14607 10.8886L8.41748 7.67899C8.36548 7.45056 8.44302 7.21206 8.61954 7.05752L11.0916 4.88949L7.821 4.59249C7.58552 4.57097 7.383 4.42293 7.29098 4.20594L5.99997 1.18133L4.70739 4.2064C4.61639 4.42192 4.41387 4.56997 4.17894 4.59148L0.907855 4.88849L3.37984 7.05651C3.55691 7.21151 3.63437 7.44956 3.5819 7.67853L2.85386 10.8881L5.67293 9.20256C5.77392 9.14259 5.88644 9.1121 5.99997 9.1121ZM4.01743 3.91242C4.01743 3.91242 4.01743 3.91297 4.01688 3.91342L4.01743 3.91242ZM7.98149 3.91095L7.98204 3.91196C7.98204 3.91141 7.98204 3.91141 7.98149 3.91095Z" fill="#2B88F5"/>
</svg>
