<svg width="15" height="15" viewBox="0 0 15 15" fill="none" xmlns="http://www.w3.org/2000/svg">
<g id="sidebar (2)" clip-path="url(#clip0_10238_4933)">
<g id="01">
<path id="Vector" d="M9.23488 0H5.20512C1.55616 0 0 1.55616 0 5.20512V9.23488C0 12.8838 1.55616 14.44 5.20512 14.44H9.23488C12.8838 14.44 14.44 12.8838 14.44 9.23488V5.20512C14.44 1.55616 12.8838 0 9.23488 0ZM8.73116 13.4326H5.20512C2.10623 13.4326 1.00744 12.3338 1.00744 9.23488V5.20512C1.00744 2.10623 2.10623 1.00744 5.20512 1.00744H8.73116V13.4326ZM13.4326 9.23488C13.4326 12.1592 12.4527 13.3009 9.7386 13.4205V1.01953C12.4527 1.13908 13.4326 2.28085 13.4326 5.20512V9.23488ZM4.88945 5.14467L6.60882 6.86404C6.65561 6.91076 6.69273 6.96625 6.71805 7.02733C6.74338 7.0884 6.75641 7.15388 6.75641 7.22C6.75641 7.28612 6.74338 7.35159 6.71805 7.41267C6.69273 7.47375 6.65561 7.52924 6.60882 7.57596L4.88945 9.29533C4.7944 9.38704 4.66714 9.43776 4.53507 9.43655C4.40299 9.43534 4.27668 9.3823 4.18333 9.28886C4.08998 9.19543 4.03706 9.06906 4.03597 8.93699C4.03489 8.80491 4.08572 8.67769 4.17753 8.58273L5.54093 7.22L4.17753 5.85727C4.08572 5.76231 4.03489 5.63509 4.03597 5.50301C4.03706 5.37094 4.08998 5.24457 4.18333 5.15114C4.27668 5.0577 4.40299 5.00466 4.53507 5.00345C4.66714 5.00224 4.7944 5.05296 4.88945 5.14467Z" fill="white"/>
</g>
</g>
<defs>
<clipPath id="clip0_10238_4933">
<rect width="15" height="15" fill="white"/>
</clipPath>
</defs>
</svg>
